<svg version="1.1" id="Layer_1" xmlns="http://www.w3.org/2000/svg" xmlns:xlink="http://www.w3.org/1999/xlink" x="0px" y="0px"
	 width="100%" viewBox="0 0 500 500" enable-background="new 0 0 500 500" xml:space="preserve">
<path fill="#FFFFFF" opacity="1.000000" stroke="none" 
	d="
M218.000000,501.000000 
	C145.333344,501.000000 73.166702,501.000000 1.000039,501.000000 
	C1.000026,334.333405 1.000026,167.666779 1.000013,1.000128 
	C167.666565,1.000085 334.333130,1.000085 500.999756,1.000043 
	C500.999847,167.666534 500.999847,334.333069 500.999939,500.999817 
	C406.833344,501.000000 312.666656,501.000000 218.000000,501.000000 
M327.500000,261.998230 
	C239.424271,261.998230 151.348526,261.998230 63.285408,261.998230 
	C63.285408,284.300934 63.285408,306.023956 63.285408,327.712708 
	C191.980225,327.712708 320.355377,327.712708 448.718445,327.712708 
	C448.718445,305.699280 448.718445,283.976501 448.718445,261.998230 
	C408.432678,261.998230 368.466339,261.998230 327.500000,261.998230 
M442.860809,214.592117 
	C441.905121,204.320389 441.050079,194.037399 439.903809,183.786972 
	C439.690186,181.876587 438.062744,178.431534 437.501678,178.513901 
	C431.712402,179.363708 425.318512,175.487701 420.116608,180.468552 
	C419.465485,181.092041 419.364258,182.289642 419.007690,183.221008 
	C415.918030,191.291458 412.844055,199.367981 409.732239,207.429871 
	C407.971497,211.991425 406.148468,216.528931 403.964203,222.063736 
	C402.696991,219.021271 401.845581,217.099518 401.089264,215.141052 
	C396.778717,203.979263 392.540253,192.789124 388.129852,181.667099 
	C387.606750,180.347992 386.239227,178.472641 385.171692,178.409851 
	C379.600098,178.082153 373.998962,178.256958 368.305664,178.256958 
	C365.987030,204.162552 363.736298,229.309692 361.459473,254.748566 
	C367.436127,254.748566 373.014435,254.748566 378.943268,254.748566 
	C380.142731,240.393295 381.329773,226.186951 382.516785,211.980606 
	C384.212463,213.486862 384.835419,214.999680 385.375641,216.541489 
	C389.441925,228.146637 393.663055,239.702057 397.451477,251.397507 
	C398.727173,255.335785 401.411346,254.651627 404.138916,254.683411 
	C406.755035,254.713898 409.244934,255.209793 410.328247,251.451248 
	C412.258362,244.755020 414.807404,238.236130 417.128510,231.653976 
	C419.514252,224.888367 421.936981,218.135773 424.343567,211.377502 
	C424.669281,211.429581 424.995026,211.481659 425.320770,211.533737 
	C426.502045,225.906082 427.683289,240.278442 428.864990,254.655930 
	C434.860199,254.655930 440.429840,254.655930 446.342987,254.655930 
	C445.178162,241.356339 444.046448,228.434555 442.860809,214.592117 
M186.066925,247.641769 
	C187.563385,248.761520 189.009430,250.758286 190.565094,250.847672 
	C196.951736,251.214661 203.371735,251.001038 210.863373,251.001038 
	C201.719543,239.988342 193.281158,229.825256 184.722443,219.517242 
	C186.529373,218.581009 188.040314,217.899734 189.450409,217.050949 
	C198.425049,211.648804 201.000275,203.294479 199.945770,193.487244 
	C198.969925,184.411407 193.835342,177.551773 185.125397,176.166199 
	C172.991653,174.235947 160.532425,174.351791 148.190704,173.590591 
	C148.190704,200.258331 148.190704,225.474365 148.190704,250.773056 
	C153.914993,250.773056 159.334427,250.773056 165.397736,250.773056 
	C165.397736,241.227112 165.397736,231.893143 165.397736,222.559189 
	C165.739883,222.470856 166.082031,222.382507 166.424194,222.294174 
	C172.825150,230.543549 179.226120,238.792908 186.066925,247.641769 
M114.049927,204.628662 
	C122.387085,194.809113 130.724243,184.989548 139.818314,174.278473 
	C132.584457,174.278473 126.638199,174.095673 120.717674,174.405151 
	C119.210556,174.483932 117.461555,175.844650 116.375626,177.095505 
	C110.152489,184.263687 104.096230,191.576752 97.982201,198.839706 
	C96.345558,200.783890 94.704964,202.724762 93.066193,204.667160 
	C92.689842,204.489120 92.313484,204.311081 91.937134,204.133026 
	C91.937134,194.272430 91.937134,184.411819 91.937134,174.633026 
	C85.963089,174.633026 80.557907,174.633026 75.199326,174.633026 
	C75.199326,200.229660 75.199326,225.467010 75.199326,250.760803 
	C80.937584,250.760803 86.361572,250.760803 92.219315,250.760803 
	C92.219315,240.315826 92.219315,230.105850 92.219315,218.650162 
	C93.977798,220.567429 94.966354,221.596634 95.901329,222.672409 
	C103.222321,231.096085 110.508408,239.550293 117.874931,247.933899 
	C118.915565,249.118210 120.301743,250.793655 121.581093,250.842178 
	C128.930740,251.121048 136.296402,250.977936 144.548172,250.977936 
	C138.055649,243.628418 132.331146,237.149078 126.607544,230.668961 
	C120.770927,224.060928 114.935135,217.452148 108.995026,210.725967 
	C110.642838,208.733719 112.111542,206.958008 114.049927,204.628662 
M311.453644,212.499878 
	C311.453644,226.582565 311.453644,240.665253 311.453644,254.776276 
	C326.466827,254.776276 340.737671,254.776276 355.260345,254.776276 
	C355.260345,249.791183 355.260345,245.033691 355.260345,239.665741 
	C346.449860,239.665741 337.882751,239.665741 329.260193,239.665741 
	C329.260193,234.285629 329.260193,229.518219 329.260193,224.214050 
	C337.554291,224.214050 345.622437,224.214050 353.948395,224.214050 
	C353.948395,218.945450 353.948395,214.214737 353.948395,208.811356 
	C345.557129,208.811356 337.354095,208.811356 329.284912,208.811356 
	C329.284912,203.525284 329.284912,198.914276 329.284912,193.886108 
	C337.968140,193.886108 346.396820,193.886108 355.170563,193.886108 
	C355.170563,188.567856 355.170563,183.675873 355.170563,178.511047 
	C340.643311,178.511047 326.406525,178.511047 311.454132,178.511047 
	C311.454132,189.625397 311.454132,200.562622 311.453644,212.499878 
M299.188995,220.374222 
	C294.747803,217.216782 290.448608,213.828995 285.820160,210.975204 
	C282.159546,208.718170 278.057526,207.188400 274.221466,205.200729 
	C271.420441,203.749344 268.518829,201.436523 270.217926,198.251053 
	C271.458435,195.925446 274.593414,194.154800 277.264038,193.199005 
	C279.222931,192.497986 281.889832,193.205688 284.077728,193.844986 
	C287.546143,194.858475 290.877930,196.339600 294.515930,197.716904 
	C296.738647,193.341324 298.973297,188.942230 301.445129,184.076248 
	C290.462555,177.849960 279.455109,174.381302 267.421722,179.062363 
	C256.707123,183.230408 251.062653,193.148056 252.947891,203.635742 
	C254.301422,211.165604 259.383362,215.829300 265.743317,219.308548 
	C270.845398,222.099625 276.271698,224.377930 281.067596,227.606491 
	C282.801056,228.773453 284.088623,232.175003 283.793243,234.309692 
	C283.534698,236.178070 280.920349,238.903961 279.085175,239.130234 
	C274.954376,239.639587 270.452850,239.541046 266.491638,238.371231 
	C262.296844,237.132431 258.553101,234.366089 254.285202,232.092667 
	C251.578918,236.645447 248.798157,241.323517 246.054520,245.939148 
	C256.021332,255.892181 276.344940,259.399628 289.709534,253.648590 
	C303.114960,247.879959 307.729828,232.699585 299.188995,220.374222 
M214.210495,239.475983 
	C214.210495,243.241699 214.210495,247.007401 214.210495,250.658859 
	C220.483826,250.658859 226.057251,250.658859 231.525726,250.658859 
	C231.525726,225.078003 231.525726,199.856384 231.525726,174.656967 
	C225.601685,174.656967 220.046997,174.656967 214.210556,174.656967 
	C214.210556,196.199158 214.210556,217.341751 214.210495,239.475983 
z"/>
<path fill="#175E7C" opacity="1.000000" stroke="none" 
	d="
M328.000000,261.998230 
	C368.466339,261.998230 408.432678,261.998230 448.718445,261.998230 
	C448.718445,283.976501 448.718445,305.699280 448.718445,327.712708 
	C320.355377,327.712708 191.980225,327.712708 63.285408,327.712708 
	C63.285408,306.023956 63.285408,284.300934 63.285408,261.998230 
	C151.348526,261.998230 239.424271,261.998230 328.000000,261.998230 
M388.008850,290.452332 
	C387.125183,292.491211 386.241516,294.530060 384.896240,297.634064 
	C382.477478,291.730377 380.392822,287.076935 378.675629,282.291626 
	C377.602875,279.302277 375.983673,278.511566 372.890411,279.650421 
	C372.890411,286.961578 372.825531,294.105957 372.970612,301.246094 
	C372.989227,302.161499 374.099731,303.054718 374.704346,303.958221 
	C375.140198,303.055084 375.931030,302.160522 375.953064,301.247406 
	C376.075684,296.164124 376.011902,291.076324 376.011902,285.990082 
	C376.249969,285.936096 376.488007,285.882111 376.726074,285.828125 
	C379.298615,291.921783 381.871185,298.015442 385.003662,305.435394 
	C388.130676,297.946014 390.686432,291.824829 393.242218,285.703644 
	C393.984589,291.233948 393.932709,296.527527 394.045074,301.817627 
	C394.060486,302.543579 394.892639,303.252228 395.346680,303.968872 
	C395.918549,303.368622 396.979095,302.775635 396.988129,302.167053 
	C397.101410,294.554474 397.062347,286.939636 397.062347,279.325378 
	C396.552704,279.002808 396.043060,278.680206 395.533417,278.357635 
	C394.117096,279.686554 392.336517,280.796021 391.372101,282.397156 
	C390.016632,284.647461 389.267181,287.262848 388.008850,290.452332 
M190.802658,284.737427 
	C190.802612,284.239105 190.930969,283.696991 190.778625,283.250641 
	C190.307693,281.870636 189.729797,280.527191 189.193436,279.169525 
	C188.553909,280.594727 187.444641,281.993591 187.362976,283.450073 
	C187.118195,287.816376 187.274887,292.205170 187.274887,297.417694 
	C180.837128,291.235687 178.029816,283.078430 171.490509,278.454773 
	C171.068192,278.785950 170.645889,279.117096 170.223572,279.448273 
	C170.223572,287.534973 170.223572,295.621704 170.223572,304.685760 
	C174.990097,302.721497 172.908737,298.986725 173.214874,296.422180 
	C173.590744,293.273743 173.304535,290.046204 173.304535,285.928101 
	C180.435272,291.672180 182.330414,300.670166 190.802551,304.911255 
	C190.802551,297.608154 190.802551,291.642822 190.802658,284.737427 
M236.699539,302.947113 
	C237.788300,303.338379 238.848724,303.869507 239.970688,304.096954 
	C245.134384,305.143738 249.565063,303.894409 252.792084,299.542969 
	C255.830521,295.445862 255.984222,288.816254 253.223267,284.444946 
	C250.299255,279.815491 245.909515,278.326172 240.733032,279.060272 
	C235.807404,279.758789 232.459930,282.744629 231.229431,287.467560 
	C229.694626,293.358459 230.745880,298.718414 236.699539,302.947113 
M139.476837,280.721741 
	C138.389786,281.734222 137.116867,282.609283 136.248550,283.783508 
	C132.872955,288.348358 133.109909,295.733337 136.636536,300.112579 
	C139.936432,304.210266 146.081894,305.651123 151.147934,303.514893 
	C156.317078,301.335175 159.142853,295.739868 158.232971,289.485901 
	C156.957977,280.722595 149.342606,276.852509 139.476837,280.721741 
M266.873779,291.501007 
	C266.877228,294.990906 266.799530,298.484344 266.952759,301.967651 
	C266.983307,302.662354 267.896118,303.318237 268.402130,303.992035 
	C268.940308,303.353302 269.891052,302.746063 269.942688,302.070129 
	C270.130280,299.615509 270.016663,297.137848 270.016663,294.855621 
	C274.897461,292.744812 275.987549,296.488373 277.957336,299.042206 
	C279.520020,301.068268 279.871826,305.071930 284.504425,303.563812 
	C282.494507,300.391785 280.645386,297.473541 278.703308,294.408630 
	C282.864563,292.273682 285.812012,289.492645 284.210754,284.506561 
	C282.631378,279.588654 278.563202,278.985626 274.158417,279.112122 
	C271.884460,279.177429 269.607086,279.123596 266.873871,279.123596 
	C266.873871,283.274933 266.873871,286.893127 266.873779,291.501007 
M212.989914,304.367035 
	C217.008133,303.794922 219.941727,302.046570 220.196945,297.537354 
	C220.462433,292.846466 217.108368,291.335114 213.508682,290.100464 
	C211.784836,289.509216 209.867371,289.270325 208.353348,288.351562 
	C207.285049,287.703247 206.030945,286.083435 206.166611,285.072815 
	C206.315048,283.967133 207.910065,282.309326 208.975723,282.228668 
	C211.186722,282.061371 213.458221,282.829498 215.717728,283.108948 
	C216.800369,283.242828 217.912354,283.139496 219.011047,283.143616 
	C218.329010,282.180847 217.715302,280.453369 216.953339,280.385284 
	C213.294937,280.058441 209.472778,279.622589 205.969299,280.399811 
	C204.434174,280.740417 202.583115,283.887451 202.591797,285.752136 
	C202.600266,287.572174 204.456192,289.846802 206.125351,291.069885 
	C207.909775,292.377472 210.641769,292.341309 212.554825,293.539032 
	C214.266922,294.610992 215.427551,296.563751 216.831497,298.127869 
	C214.824646,299.244659 212.831940,301.227325 210.807404,301.260376 
	C208.242783,301.302277 205.652252,299.759216 201.495255,298.373962 
	C202.791229,300.495483 203.212555,302.154144 204.120529,302.487549 
	C206.712112,303.439148 209.501617,303.851776 212.989914,304.367035 
M358.950867,300.155060 
	C361.763824,292.581451 360.890747,280.083099 357.052765,279.446960 
	C357.052765,284.313690 357.147644,289.112732 357.026581,293.906311 
	C356.900787,298.887390 354.567017,301.445465 350.366821,301.540833 
	C346.199951,301.635468 343.694702,299.216736 343.356537,294.205017 
	C343.077240,290.065582 343.336334,285.891754 343.149841,281.742462 
	C343.110718,280.871613 342.167297,280.041443 341.640564,279.192505 
	C341.105835,280.033905 340.147797,280.856445 340.109344,281.719971 
	C339.939148,285.537109 340.068329,289.366455 340.022919,293.190582 
	C339.970490,297.604523 340.810638,301.743042 345.370605,303.500793 
	C350.151184,305.343597 354.855499,305.140991 358.950867,300.155060 
M102.475792,287.448792 
	C101.097633,295.541077 103.301437,300.787109 109.167473,303.377960 
	C114.619247,305.785858 119.975716,304.360626 124.295708,298.521118 
	C122.196442,298.999939 120.891869,299.000519 119.920212,299.569519 
	C115.245193,302.307373 110.880539,302.013000 107.754295,298.561768 
	C104.373322,294.829346 104.332886,288.613586 107.664986,284.830780 
	C110.742447,281.337067 115.009613,281.023682 119.817070,283.729004 
	C120.782295,284.272186 122.110252,284.170807 123.270966,284.366638 
	C116.730659,276.134949 107.606194,277.652344 102.475792,287.448792 
M302.231232,300.173645 
	C302.832214,301.456268 303.433197,302.738861 304.034149,304.021484 
	C304.636505,302.744049 305.717987,301.481842 305.759094,300.186615 
	C305.946350,294.281921 305.841248,288.368011 305.841248,282.282623 
	C308.808258,282.145691 311.162628,282.037048 313.929016,281.909393 
	C312.091919,279.155731 303.397583,278.001099 296.620361,279.139801 
	C295.787170,279.279785 295.102448,280.303650 293.235413,281.825562 
	C297.272095,282.061859 299.657135,282.201508 302.231140,282.352173 
	C302.231140,288.313812 302.231140,293.779449 302.231232,300.173645 
M327.618469,280.222992 
	C324.619080,277.828033 324.108673,279.671143 324.103882,282.303741 
	C324.092712,288.468323 324.006897,294.635651 324.186462,300.794983 
	C324.218475,301.893341 325.381836,302.958740 326.022797,304.039337 
	C326.603943,302.890045 327.659607,301.752197 327.687592,300.589569 
	C327.844025,294.095764 327.751892,287.595978 327.618469,280.222992 
z"/>
<path fill="#FFCD04" opacity="1.000000" stroke="none" 
	d="
M442.887756,215.052444 
	C444.046448,228.434555 445.178162,241.356339 446.342987,254.655930 
	C440.429840,254.655930 434.860199,254.655930 428.864990,254.655930 
	C427.683289,240.278442 426.502045,225.906082 425.320770,211.533737 
	C424.995026,211.481659 424.669281,211.429581 424.343567,211.377502 
	C421.936981,218.135773 419.514252,224.888367 417.128510,231.653976 
	C414.807404,238.236130 412.258362,244.755020 410.328247,251.451248 
	C409.244934,255.209793 406.755035,254.713898 404.138916,254.683411 
	C401.411346,254.651627 398.727173,255.335785 397.451477,251.397507 
	C393.663055,239.702057 389.441925,228.146637 385.375641,216.541489 
	C384.835419,214.999680 384.212463,213.486862 382.516785,211.980606 
	C381.329773,226.186951 380.142731,240.393295 378.943268,254.748566 
	C373.014435,254.748566 367.436127,254.748566 361.459473,254.748566 
	C363.736298,229.309692 365.987030,204.162552 368.305664,178.256958 
	C373.998962,178.256958 379.600098,178.082153 385.171692,178.409851 
	C386.239227,178.472641 387.606750,180.347992 388.129852,181.667099 
	C392.540253,192.789124 396.778717,203.979263 401.089264,215.141052 
	C401.845581,217.099518 402.696991,219.021271 403.964203,222.063736 
	C406.148468,216.528931 407.971497,211.991425 409.732239,207.429871 
	C412.844055,199.367981 415.918030,191.291458 419.007690,183.221008 
	C419.364258,182.289642 419.465485,181.092041 420.116608,180.468552 
	C425.318512,175.487701 431.712402,179.363708 437.501678,178.513901 
	C438.062744,178.431534 439.690186,181.876587 439.903809,183.786972 
	C441.050079,194.037399 441.905121,204.320389 442.887756,215.052444 
z"/>
<path fill="#195F7C" opacity="1.000000" stroke="none" 
	d="
M185.847000,247.342026 
	C179.226120,238.792908 172.825150,230.543549 166.424194,222.294174 
	C166.082031,222.382507 165.739883,222.470856 165.397736,222.559189 
	C165.397736,231.893143 165.397736,241.227112 165.397736,250.773056 
	C159.334427,250.773056 153.914993,250.773056 148.190704,250.773056 
	C148.190704,225.474365 148.190704,200.258331 148.190704,173.590591 
	C160.532425,174.351791 172.991653,174.235947 185.125397,176.166199 
	C193.835342,177.551773 198.969925,184.411407 199.945770,193.487244 
	C201.000275,203.294479 198.425049,211.648804 189.450409,217.050949 
	C188.040314,217.899734 186.529373,218.581009 184.722443,219.517242 
	C193.281158,229.825256 201.719543,239.988342 210.863373,251.001038 
	C203.371735,251.001038 196.951736,251.214661 190.565094,250.847672 
	C189.009430,250.758286 187.563385,248.761520 185.847000,247.342026 
M177.059570,206.951218 
	C181.766235,203.354828 183.143768,198.367844 180.778610,193.487411 
	C178.643463,189.081604 172.304733,187.211823 165.181961,189.066895 
	C165.181961,194.262436 165.170929,199.545746 165.192001,204.828918 
	C165.195831,205.791870 165.330704,206.754288 165.473419,208.601471 
	C169.255753,208.113617 172.767685,207.660614 177.059570,206.951218 
z"/>
<path fill="#195F7D" opacity="1.000000" stroke="none" 
	d="
M113.815094,204.905487 
	C112.111542,206.958008 110.642838,208.733719 108.995026,210.725967 
	C114.935135,217.452148 120.770927,224.060928 126.607544,230.668961 
	C132.331146,237.149078 138.055649,243.628418 144.548172,250.977936 
	C136.296402,250.977936 128.930740,251.121048 121.581093,250.842178 
	C120.301743,250.793655 118.915565,249.118210 117.874931,247.933899 
	C110.508408,239.550293 103.222321,231.096085 95.901329,222.672409 
	C94.966354,221.596634 93.977798,220.567429 92.219315,218.650162 
	C92.219315,230.105850 92.219315,240.315826 92.219315,250.760803 
	C86.361572,250.760803 80.937584,250.760803 75.199326,250.760803 
	C75.199326,225.467010 75.199326,200.229660 75.199326,174.633026 
	C80.557907,174.633026 85.963089,174.633026 91.937134,174.633026 
	C91.937134,184.411819 91.937134,194.272430 91.937134,204.133026 
	C92.313484,204.311081 92.689842,204.489120 93.066193,204.667160 
	C94.704964,202.724762 96.345558,200.783890 97.982201,198.839706 
	C104.096230,191.576752 110.152489,184.263687 116.375626,177.095505 
	C117.461555,175.844650 119.210556,174.483932 120.717674,174.405151 
	C126.638199,174.095673 132.584457,174.278473 139.818314,174.278473 
	C130.724243,184.989548 122.387085,194.809113 113.815094,204.905487 
z"/>
<path fill="#FFCC02" opacity="1.000000" stroke="none" 
	d="
M311.453888,211.999863 
	C311.454132,200.562622 311.454132,189.625397 311.454132,178.511047 
	C326.406525,178.511047 340.643311,178.511047 355.170563,178.511047 
	C355.170563,183.675873 355.170563,188.567856 355.170563,193.886108 
	C346.396820,193.886108 337.968140,193.886108 329.284912,193.886108 
	C329.284912,198.914276 329.284912,203.525284 329.284912,208.811356 
	C337.354095,208.811356 345.557129,208.811356 353.948395,208.811356 
	C353.948395,214.214737 353.948395,218.945450 353.948395,224.214050 
	C345.622437,224.214050 337.554291,224.214050 329.260193,224.214050 
	C329.260193,229.518219 329.260193,234.285629 329.260193,239.665741 
	C337.882751,239.665741 346.449860,239.665741 355.260345,239.665741 
	C355.260345,245.033691 355.260345,249.791183 355.260345,254.776276 
	C340.737671,254.776276 326.466827,254.776276 311.453644,254.776276 
	C311.453644,240.665253 311.453644,226.582565 311.453888,211.999863 
z"/>
<path fill="#FFCD04" opacity="1.000000" stroke="none" 
	d="
M299.423767,220.647934 
	C307.729828,232.699585 303.114960,247.879959 289.709534,253.648590 
	C276.344940,259.399628 256.021332,255.892181 246.054520,245.939148 
	C248.798157,241.323517 251.578918,236.645447 254.285202,232.092667 
	C258.553101,234.366089 262.296844,237.132431 266.491638,238.371231 
	C270.452850,239.541046 274.954376,239.639587 279.085175,239.130234 
	C280.920349,238.903961 283.534698,236.178070 283.793243,234.309692 
	C284.088623,232.175003 282.801056,228.773453 281.067596,227.606491 
	C276.271698,224.377930 270.845398,222.099625 265.743317,219.308548 
	C259.383362,215.829300 254.301422,211.165604 252.947891,203.635742 
	C251.062653,193.148056 256.707123,183.230408 267.421722,179.062363 
	C279.455109,174.381302 290.462555,177.849960 301.445129,184.076248 
	C298.973297,188.942230 296.738647,193.341324 294.515930,197.716904 
	C290.877930,196.339600 287.546143,194.858475 284.077728,193.844986 
	C281.889832,193.205688 279.222931,192.497986 277.264038,193.199005 
	C274.593414,194.154800 271.458435,195.925446 270.217926,198.251053 
	C268.518829,201.436523 271.420441,203.749344 274.221466,205.200729 
	C278.057526,207.188400 282.159546,208.718170 285.820160,210.975204 
	C290.448608,213.828995 294.747803,217.216782 299.423767,220.647934 
z"/>
<path fill="#1E637F" opacity="1.000000" stroke="none" 
	d="
M214.210526,238.980164 
	C214.210556,217.341751 214.210556,196.199158 214.210556,174.656967 
	C220.046997,174.656967 225.601685,174.656967 231.525726,174.656967 
	C231.525726,199.856384 231.525726,225.078003 231.525726,250.658859 
	C226.057251,250.658859 220.483826,250.658859 214.210495,250.658859 
	C214.210495,247.007401 214.210495,243.241699 214.210526,238.980164 
z"/>
<path fill="#F4F7F9" opacity="1.000000" stroke="none" 
	d="
M388.133698,290.087219 
	C389.267181,287.262848 390.016632,284.647461 391.372101,282.397156 
	C392.336517,280.796021 394.117096,279.686554 395.533417,278.357635 
	C396.043060,278.680206 396.552704,279.002808 397.062347,279.325378 
	C397.062347,286.939636 397.101410,294.554474 396.988129,302.167053 
	C396.979095,302.775635 395.918549,303.368622 395.346680,303.968872 
	C394.892639,303.252228 394.060486,302.543579 394.045074,301.817627 
	C393.932709,296.527527 393.984589,291.233948 393.242218,285.703644 
	C390.686432,291.824829 388.130676,297.946014 385.003662,305.435394 
	C381.871185,298.015442 379.298615,291.921783 376.726074,285.828125 
	C376.488007,285.882111 376.249969,285.936096 376.011902,285.990082 
	C376.011902,291.076324 376.075684,296.164124 375.953064,301.247406 
	C375.931030,302.160522 375.140198,303.055084 374.704346,303.958221 
	C374.099731,303.054718 372.989227,302.161499 372.970612,301.246094 
	C372.825531,294.105957 372.890411,286.961578 372.890411,279.650421 
	C375.983673,278.511566 377.602875,279.302277 378.675629,282.291626 
	C380.392822,287.076935 382.477478,291.730377 384.896240,297.634064 
	C386.241516,294.530060 387.125183,292.491211 388.133698,290.087219 
z"/>
<path fill="#E4ECF0" opacity="1.000000" stroke="none" 
	d="
M190.802612,285.207458 
	C190.802551,291.642822 190.802551,297.608154 190.802551,304.911255 
	C182.330414,300.670166 180.435272,291.672180 173.304535,285.928101 
	C173.304535,290.046204 173.590744,293.273743 173.214874,296.422180 
	C172.908737,298.986725 174.990097,302.721497 170.223572,304.685760 
	C170.223572,295.621704 170.223572,287.534973 170.223572,279.448273 
	C170.645889,279.117096 171.068192,278.785950 171.490509,278.454773 
	C178.029816,283.078430 180.837128,291.235687 187.274887,297.417694 
	C187.274887,292.205170 187.118195,287.816376 187.362976,283.450073 
	C187.444641,281.993591 188.553909,280.594727 189.193436,279.169525 
	C189.729797,280.527191 190.307693,281.870636 190.778625,283.250641 
	C190.930969,283.696991 190.802612,284.239105 190.802612,285.207458 
z"/>
<path fill="#EEF3F5" opacity="1.000000" stroke="none" 
	d="
M236.380585,302.754272 
	C230.745880,298.718414 229.694626,293.358459 231.229431,287.467560 
	C232.459930,282.744629 235.807404,279.758789 240.733032,279.060272 
	C245.909515,278.326172 250.299255,279.815491 253.223267,284.444946 
	C255.984222,288.816254 255.830521,295.445862 252.792084,299.542969 
	C249.565063,303.894409 245.134384,305.143738 239.970688,304.096954 
	C238.848724,303.869507 237.788300,303.338379 236.380585,302.754272 
M247.211899,282.888123 
	C241.364944,280.977112 237.494568,282.072571 235.198074,286.288483 
	C232.777359,290.732422 233.899368,297.101532 237.589249,299.861969 
	C240.883316,302.326263 246.107468,301.995636 249.017944,299.138641 
	C252.554947,295.666595 252.878372,289.363861 249.694061,284.982422 
	C249.216751,284.325684 248.512833,283.833588 247.211899,282.888123 
z"/>
<path fill="#EEF3F5" opacity="1.000000" stroke="none" 
	d="
M139.798828,280.501587 
	C149.342606,276.852509 156.957977,280.722595 158.232971,289.485901 
	C159.142853,295.739868 156.317078,301.335175 151.147934,303.514893 
	C146.081894,305.651123 139.936432,304.210266 136.636536,300.112579 
	C133.109909,295.733337 132.872955,288.348358 136.248550,283.783508 
	C137.116867,282.609283 138.389786,281.734222 139.798828,280.501587 
M137.143723,292.318359 
	C138.591171,298.976929 141.624924,301.910431 146.702454,301.561279 
	C151.418198,301.236969 154.667831,297.768616 155.031891,292.671143 
	C155.453461,286.768982 152.271271,282.387238 147.211945,281.903381 
	C141.454865,281.352783 138.335144,284.325348 137.143723,292.318359 
z"/>
<path fill="#EEF3F5" opacity="1.000000" stroke="none" 
	d="
M266.873840,291.006165 
	C266.873871,286.893127 266.873871,283.274933 266.873871,279.123596 
	C269.607086,279.123596 271.884460,279.177429 274.158417,279.112122 
	C278.563202,278.985626 282.631378,279.588654 284.210754,284.506561 
	C285.812012,289.492645 282.864563,292.273682 278.703308,294.408630 
	C280.645386,297.473541 282.494507,300.391785 284.504425,303.563812 
	C279.871826,305.071930 279.520020,301.068268 277.957336,299.042206 
	C275.987549,296.488373 274.897461,292.744812 270.016663,294.855621 
	C270.016663,297.137848 270.130280,299.615509 269.942688,302.070129 
	C269.891052,302.746063 268.940308,303.353302 268.402130,303.992035 
	C267.896118,303.318237 266.983307,302.662354 266.952759,301.967651 
	C266.799530,298.484344 266.877228,294.990906 266.873840,291.006165 
M273.371704,282.069763 
	C265.996918,283.056885 272.078613,288.207184 269.601257,291.112793 
	C272.885620,291.112793 275.329285,291.609314 277.401276,290.945526 
	C278.886353,290.469818 280.737732,288.505371 280.842896,287.087677 
	C280.950165,285.641907 279.366882,283.771912 278.052765,282.629303 
	C277.238342,281.921143 275.546661,282.221954 273.371704,282.069763 
z"/>
<path fill="#EBF1F4" opacity="1.000000" stroke="none" 
	d="
M212.601593,304.421722 
	C209.501617,303.851776 206.712112,303.439148 204.120529,302.487549 
	C203.212555,302.154144 202.791229,300.495483 201.495255,298.373962 
	C205.652252,299.759216 208.242783,301.302277 210.807404,301.260376 
	C212.831940,301.227325 214.824646,299.244659 216.831497,298.127869 
	C215.427551,296.563751 214.266922,294.610992 212.554825,293.539032 
	C210.641769,292.341309 207.909775,292.377472 206.125351,291.069885 
	C204.456192,289.846802 202.600266,287.572174 202.591797,285.752136 
	C202.583115,283.887451 204.434174,280.740417 205.969299,280.399811 
	C209.472778,279.622589 213.294937,280.058441 216.953339,280.385284 
	C217.715302,280.453369 218.329010,282.180847 219.011047,283.143616 
	C217.912354,283.139496 216.800369,283.242828 215.717728,283.108948 
	C213.458221,282.829498 211.186722,282.061371 208.975723,282.228668 
	C207.910065,282.309326 206.315048,283.967133 206.166611,285.072815 
	C206.030945,286.083435 207.285049,287.703247 208.353348,288.351562 
	C209.867371,289.270325 211.784836,289.509216 213.508682,290.100464 
	C217.108368,291.335114 220.462433,292.846466 220.196945,297.537354 
	C219.941727,302.046570 217.008133,303.794922 212.601593,304.421722 
z"/>
<path fill="#EFF4F6" opacity="1.000000" stroke="none" 
	d="
M358.747681,300.485260 
	C354.855499,305.140991 350.151184,305.343597 345.370605,303.500793 
	C340.810638,301.743042 339.970490,297.604523 340.022919,293.190582 
	C340.068329,289.366455 339.939148,285.537109 340.109344,281.719971 
	C340.147797,280.856445 341.105835,280.033905 341.640564,279.192505 
	C342.167297,280.041443 343.110718,280.871613 343.149841,281.742462 
	C343.336334,285.891754 343.077240,290.065582 343.356537,294.205017 
	C343.694702,299.216736 346.199951,301.635468 350.366821,301.540833 
	C354.567017,301.445465 356.900787,298.887390 357.026581,293.906311 
	C357.147644,289.112732 357.052765,284.313690 357.052765,279.446960 
	C360.890747,280.083099 361.763824,292.581451 358.747681,300.485260 
z"/>
<path fill="#EBF1F4" opacity="1.000000" stroke="none" 
	d="
M102.628571,287.073608 
	C107.606194,277.652344 116.730659,276.134949 123.270966,284.366638 
	C122.110252,284.170807 120.782295,284.272186 119.817070,283.729004 
	C115.009613,281.023682 110.742447,281.337067 107.664986,284.830780 
	C104.332886,288.613586 104.373322,294.829346 107.754295,298.561768 
	C110.880539,302.013000 115.245193,302.307373 119.920212,299.569519 
	C120.891869,299.000519 122.196442,298.999939 124.295708,298.521118 
	C119.975716,304.360626 114.619247,305.785858 109.167473,303.377960 
	C103.301437,300.787109 101.097633,295.541077 102.628571,287.073608 
z"/>
<path fill="#D9E4E9" opacity="1.000000" stroke="none" 
	d="
M302.231201,299.709381 
	C302.231140,293.779449 302.231140,288.313812 302.231140,282.352173 
	C299.657135,282.201508 297.272095,282.061859 293.235413,281.825562 
	C295.102448,280.303650 295.787170,279.279785 296.620361,279.139801 
	C303.397583,278.001099 312.091919,279.155731 313.929016,281.909393 
	C311.162628,282.037048 308.808258,282.145691 305.841248,282.282623 
	C305.841248,288.368011 305.946350,294.281921 305.759094,300.186615 
	C305.717987,301.481842 304.636505,302.744049 304.034149,304.021484 
	C303.433197,302.738861 302.832214,301.456268 302.231201,299.709381 
z"/>
<path fill="#CFDEE4" opacity="1.000000" stroke="none" 
	d="
M327.681580,280.660614 
	C327.751892,287.595978 327.844025,294.095764 327.687592,300.589569 
	C327.659607,301.752197 326.603943,302.890045 326.022797,304.039337 
	C325.381836,302.958740 324.218475,301.893341 324.186462,300.794983 
	C324.006897,294.635651 324.092712,288.468323 324.103882,282.303741 
	C324.108673,279.671143 324.619080,277.828033 327.681580,280.660614 
z"/>
<path fill="#F6F9FA" opacity="1.000000" stroke="none" 
	d="
M176.669601,207.079422 
	C172.767685,207.660614 169.255753,208.113617 165.473419,208.601471 
	C165.330704,206.754288 165.195831,205.791870 165.192001,204.828918 
	C165.170929,199.545746 165.181961,194.262436 165.181961,189.066895 
	C172.304733,187.211823 178.643463,189.081604 180.778610,193.487411 
	C183.143768,198.367844 181.766235,203.354828 176.669601,207.079422 
z"/>
<path fill="#1C617E" opacity="1.000000" stroke="none" 
	d="
M247.562820,283.076721 
	C248.512833,283.833588 249.216751,284.325684 249.694061,284.982422 
	C252.878372,289.363861 252.554947,295.666595 249.017944,299.138641 
	C246.107468,301.995636 240.883316,302.326263 237.589249,299.861969 
	C233.899368,297.101532 232.777359,290.732422 235.198074,286.288483 
	C237.494568,282.072571 241.364944,280.977112 247.562820,283.076721 
z"/>
<path fill="#1D627F" opacity="1.000000" stroke="none" 
	d="
M137.132416,291.918274 
	C138.335144,284.325348 141.454865,281.352783 147.211945,281.903381 
	C152.271271,282.387238 155.453461,286.768982 155.031891,292.671143 
	C154.667831,297.768616 151.418198,301.236969 146.702454,301.561279 
	C141.624924,301.910431 138.591171,298.976929 137.132416,291.918274 
z"/>
<path fill="#195F7D" opacity="1.000000" stroke="none" 
	d="
M273.810242,282.069824 
	C275.546661,282.221954 277.238342,281.921143 278.052765,282.629303 
	C279.366882,283.771912 280.950165,285.641907 280.842896,287.087677 
	C280.737732,288.505371 278.886353,290.469818 277.401276,290.945526 
	C275.329285,291.609314 272.885620,291.112793 269.601257,291.112793 
	C272.078613,288.207184 265.996918,283.056885 273.810242,282.069824 
z"/>
</svg>